<?xml version="1.0" encoding="utf-8"?>
<!-- Generator: Adobe Illustrator 24.2.1, SVG Export Plug-In . SVG Version: 6.00 Build 0)  -->
<svg version="1.1" id="Layer_1" xmlns="http://www.w3.org/2000/svg" xmlns:xlink="http://www.w3.org/1999/xlink" x="0px" y="0px"
	 viewBox="0 0 51 50" style="enable-background:new 0 0 51 50;" xml:space="preserve">
<style type="text/css">
	.st0{fill:#FFFFFF;}
	.st1{fill:#898989;}
	.st2{fill:#33C5F3;}
</style>
<rect x="9.9" y="9.4" class="st0" width="31.8" height="31"/>
<path class="st1" d="M0,0h32.8c4.6,0,9,1.8,12.2,5.1c3.2,3.2,5.1,7.6,5.1,12.2v20.6H37.9V17.2c0-1.4-0.5-2.6-1.5-3.6
	c-1-1-2.3-1.5-3.6-1.5H0V0z"/>
<path class="st2" d="M50,50H17.2c-4.3,0-8.4-1.6-11.6-4.5C2.4,42.6,0.4,38.6,0,34.4V12.1h12.1v20.6c0,1.4,0.5,2.6,1.5,3.6
	c1,1,2.2,1.5,3.6,1.5H50V50z"/>
</svg>
